<svg xmlns="http://www.w3.org/2000/svg" viewBox="0 0 24 24" role="img" aria-label="CatchTail">
  <rect width="24" height="24" rx="6" fill="#2563EB"/>
  <path d="M13.2 12.7c2.7-2.2 3.2-4.7 1.5-7.1" fill="none" stroke="#fff" stroke-width="2.4" stroke-linecap="round"/>
  <path d="M14.7 5.6c.9-.6 1.8-.9 2.8-.8M14.9 5.7c.7-.9 1.4-1.5 2.3-1.8M14.8 5.7c1 .1 1.9.5 2.7 1.1" fill="none" stroke="#fff" stroke-width="1.5" stroke-linecap="round"/>
  <path d="M6.1 13.1h8.2a3.5 3.5 0 0 1 3.5 3.5v.2a2.3 2.3 0 0 1-2.3 2.3H7.4a3.2 3.2 0 0 1-3.2-3.2v-.9a1.9 1.9 0 0 1 1.9-1.9Z" fill="#fff"/>
  <path d="M7 13.1v-1.2M9.5 13.1v-1.6M12 13.1v-1.5M14.5 13.1v-1.1" fill="none" stroke="#2563EB" stroke-width="1.2" stroke-linecap="round"/>
  <path d="M5.4 16.5h4" fill="none" stroke="#2563EB" stroke-width="1.2" stroke-linecap="round"/>
</svg>
