<svg xmlns="http://www.w3.org/2000/svg" viewBox="0 0 24 24" role="img" aria-label="CatchTail">
  <rect width="24" height="24" rx="6" fill="#2563EB"/>
  <path d="M12.1 9.9c.1-3.5 2.3-5.9 5.4-5.3 2.6.5 3.5 3.1 1.9 5.1-1 1.3-2.8 2.2-2.6 3.9.1 1 .8 1.7 1.8 2.1-1.6 1.5-4.2.7-4.6-1.5-.3-1.7.8-3.1 1.8-4.2 1-1.2.6-2.6-.7-2.8-1.1-.2-2 .7-2.1 2.7h-.9Z" fill="#fff"/>
  <path d="M7.7 8.8h6.1a3.4 3.4 0 0 1 3.4 3.4v5.1a3.4 3.4 0 0 1-3.4 3.4H7.7a3.4 3.4 0 0 1-3.4-3.4v-5.1a3.4 3.4 0 0 1 3.4-3.4Z" fill="#fff"/>
  <path d="M7.3 12.3h6.5M7.3 15.2h6.2M7.8 18h4.7" fill="none" stroke="#2563EB" stroke-width="1.35" stroke-linecap="round"/>
</svg>
